<svg width="24" height="24" viewBox="0 0 24 24" fill="none" xmlns="http://www.w3.org/2000/svg">
<path d="M12.0039 3C15.8879 3 18.8571 6.25206 18.8571 10.3555L18.8532 11.9212C18.8536 12.1846 19.0239 12.4892 19.4859 13.0329C19.5439 13.1011 19.5985 13.1644 19.7179 13.3024C20.6352 14.3637 21 14.9781 21 15.9328C21 16.3623 20.9512 16.6959 20.7477 17.0962C20.3139 17.9494 19.387 18.4286 18 18.4286L15.7704 18.4292C15.198 20.3696 13.8963 21.4286 12 21.4286C10.1037 21.4286 8.80204 20.3696 8.22955 18.4292L6 18.4286C4.57271 18.4286 3.63603 17.9364 3.22112 17.0539C3.04116 16.6712 3 16.3607 3 15.9328C3 14.9786 3.36407 14.3642 4.27957 13.303C4.39878 13.165 4.4533 13.1017 4.51121 13.0334C4.97289 12.4891 5.14286 12.1844 5.14286 11.9204V10.3534C5.14286 6.25347 8.11888 3 12.0039 3ZM13.9538 18.4293H10.0462C10.4326 19.3227 11.056 19.7143 12 19.7143C12.944 19.7143 13.5674 19.3227 13.9538 18.4293ZM12.0039 4.71429C9.10144 4.71429 6.85714 7.16782 6.85714 10.3534V11.9204C6.85714 12.7156 6.52766 13.3062 5.81864 14.1422C5.75579 14.2163 5.69646 14.2852 5.57757 14.4228C4.9261 15.1779 4.71429 15.5354 4.71429 15.9328C4.71429 16.1266 4.72797 16.2298 4.7725 16.3245C4.87872 16.5505 5.1905 16.7143 6 16.7143H18C18.7836 16.7143 19.1025 16.5494 19.2195 16.3193C19.2702 16.2197 19.2857 16.1134 19.2857 15.9328C19.2857 15.5358 19.0735 15.1784 18.421 14.4234C18.3019 14.2858 18.2424 14.2169 18.1795 14.1428C17.469 13.3067 17.1389 12.716 17.1389 11.9204L17.1429 10.3534C17.1429 7.16578 14.9045 4.71429 12.0039 4.71429Z" fill="#191816"/>
</svg>
